<svg width="12" height="21" viewBox="0 0 12 21" fill="none" xmlns="http://www.w3.org/2000/svg">
<path d="M3.11902 11.726C3.04102 11.726 1.32502 11.726 0.545023 11.726C0.129023 11.726 -0.000976562 11.57 -0.000976562 11.18C-0.000976562 10.14 -0.000976562 9.074 -0.000976562 8.034C-0.000976562 7.618 0.155023 7.488 0.545023 7.488H3.11902C3.11902 7.41 3.11902 5.902 3.11902 5.2C3.11902 4.16 3.30102 3.172 3.82102 2.262C4.36702 1.326 5.14702 0.702 6.13502 0.338C6.78501 0.104 7.43501 0 8.13701 0H10.685C11.049 0 11.205 0.156 11.205 0.52V3.484C11.205 3.848 11.049 4.004 10.685 4.004C9.98301 4.004 9.28101 4.004 8.57901 4.03C7.87701 4.03 7.51301 4.368 7.51301 5.096C7.48701 5.876 7.51301 6.63 7.51301 7.436H10.529C10.945 7.436 11.101 7.592 11.101 8.008V11.154C11.101 11.57 10.971 11.7 10.529 11.7C9.59301 11.7 7.59101 11.7 7.51301 11.7V20.176C7.51301 20.618 7.38301 20.774 6.91501 20.774C5.82302 20.774 4.75702 20.774 3.66502 20.774C3.27502 20.774 3.11902 20.618 3.11902 20.228C3.11902 17.498 3.11902 11.804 3.11902 11.726Z" fill="black"/>
</svg>
