<svg width="20" height="16" viewBox="0 0 20 16" fill="none" xmlns="http://www.w3.org/2000/svg">
<path d="M19.4606 1.82016C18.7569 2.12885 18.007 2.33345 17.2253 2.4328C18.0295 1.95262 18.6433 1.19807 18.9319 0.288577C18.1821 0.735635 17.3542 1.05141 16.4719 1.22763C15.7599 0.469529 14.7452 0 13.6382 0C11.4904 0 9.76129 1.74329 9.76129 3.88041C9.76129 4.18791 9.78731 4.48359 9.85118 4.76507C6.62598 4.60777 3.77214 3.06199 1.85499 0.70725C1.52029 1.28795 1.32397 1.95263 1.32397 2.66815C1.32397 4.01169 2.01584 5.20266 3.04715 5.89217C2.42387 5.88035 1.81242 5.69939 1.2944 5.41437C1.2944 5.42619 1.2944 5.44157 1.2944 5.45694C1.2944 7.34215 2.63912 8.90804 4.40251 9.26876C4.08674 9.3551 3.74257 9.39649 3.3854 9.39649C3.13703 9.39649 2.8863 9.3823 2.65095 9.33026C3.15359 10.8666 4.57992 11.996 6.2759 12.0327C4.95601 13.0652 3.28014 13.6873 1.46589 13.6873C1.14774 13.6873 0.84261 13.6731 0.537476 13.6341C2.25593 14.7423 4.29252 15.375 6.48878 15.375C13.6275 15.375 17.5304 9.46154 17.5304 4.33575C17.5304 4.16426 17.5245 3.99868 17.5162 3.83429C18.2861 3.28788 18.9331 2.60547 19.4606 1.82016Z" fill="black"/>
</svg>
