<svg width="19" height="18" viewBox="0 0 19 18" fill="none" xmlns="http://www.w3.org/2000/svg">
<g clip-path="url(#clip0_2_34)">
<path d="M17.099 0H1.89902C0.854024 0 -0.000976562 0.81 -0.000976562 1.8V16.2C-0.000976562 17.19 0.854024 18 1.89902 18H17.099C18.144 18 18.999 17.19 18.999 16.2V1.8C18.999 0.81 18.144 0 17.099 0ZM5.69902 15.3H2.84902V7.2H5.69902V15.3ZM4.27402 5.67C3.32402 5.67 2.56402 4.95 2.56402 4.05C2.56402 3.15 3.32402 2.43 4.27402 2.43C5.22402 2.43 5.98402 3.15 5.98402 4.05C5.98402 4.95 5.22402 5.67 4.27402 5.67ZM16.149 15.3H13.299V10.53C13.299 9.81004 12.634 9.18 11.874 9.18C11.114 9.18 10.449 9.81004 10.449 10.53V15.3H7.59902V7.2H10.449V8.28C10.924 7.56 11.969 7.02 12.824 7.02C14.629 7.02 16.149 8.46 16.149 10.17V15.3Z" fill="black"/>
</g>
<defs>
<clipPath id="clip0_2_34">
<rect width="19" height="18" fill="white" transform="translate(-0.000976562)"/>
</clipPath>
</defs>
</svg>
