<svg width="21" height="21" viewBox="0 0 21 21" fill="none" xmlns="http://www.w3.org/2000/svg">
<path d="M15.7496 0H5.24987C2.3627 0 0 2.3627 0 5.24987V15.7501C0 18.6365 2.3627 21 5.24987 21H15.7496C18.6368 21 20.9995 18.6365 20.9995 15.7501V5.24987C20.9995 2.3627 18.6368 0 15.7496 0ZM19.2494 15.7501C19.2494 17.6795 17.68 19.25 15.7496 19.25H5.24987C3.32029 19.25 1.75004 17.6795 1.75004 15.7501V5.24987C1.75004 3.32003 3.32029 1.75004 5.24987 1.75004H15.7496C17.68 1.75004 19.2494 3.32003 19.2494 5.24987V15.7501Z" fill="black"/>
<path d="M16.1872 6.12445C16.9121 6.12445 17.4997 5.53684 17.4997 4.81198C17.4997 4.08712 16.9121 3.49951 16.1872 3.49951C15.4624 3.49951 14.8748 4.08712 14.8748 4.81198C14.8748 5.53684 15.4624 6.12445 16.1872 6.12445Z" fill="black"/>
<path d="M10.2489 5.25C7.34885 5.25 4.99902 7.60009 4.99902 10.4999C4.99902 13.3986 7.34885 15.7503 10.2489 15.7503C13.1481 15.7503 15.4988 13.3986 15.4988 10.4999C15.4988 7.60009 13.1481 5.25 10.2489 5.25ZM10.2489 14.0002C8.31613 14.0002 6.74906 12.4331 6.74906 10.4999C6.74906 8.5666 8.31613 7.00004 10.2489 7.00004C12.1817 7.00004 13.7487 8.5666 13.7487 10.4999C13.7487 12.4331 12.1817 14.0002 10.2489 14.0002Z" fill="black"/>
</svg>
