<svg width="14" height="13" viewBox="0 0 14 13" fill="none" xmlns="http://www.w3.org/2000/svg">
<path d="M12.359 2.65097C12.9874 2.24332 13.4035 1.68692 13.6072 0.9793C12.9959 1.32202 12.387 1.55707 11.7788 1.68692C11.232 1.0656 10.5399 0.75 9.71002 0.75C8.89884 0.75 8.21365 1.0508 7.65446 1.63597C7.09838 2.22524 6.81762 2.94108 6.81762 3.77692C6.81762 4.03087 6.84795 4.25771 6.90862 4.45002C4.5163 4.36373 2.53619 3.31503 0.976057 1.29654C0.711627 1.79048 0.579412 2.29346 0.579412 2.81369C0.579412 3.88294 1.00639 4.73028 1.85879 5.35242C1.3727 5.30887 0.94417 5.17901 0.579412 4.96615C0.579412 5.72966 0.791734 6.36742 1.21715 6.92875C1.64413 7.48433 2.19243 7.83856 2.86206 7.98978C2.61941 8.05553 2.36354 8.08676 2.10066 8.08676C1.85801 8.08676 1.68613 8.06539 1.58425 8.01854C1.76312 8.64069 2.10066 9.14531 2.5883 9.53159C3.07438 9.91951 3.63358 10.1242 4.26199 10.1422C3.22604 11.0011 2.04155 11.426 0.701517 11.426C0.373313 11.426 0.14077 11.421 0 11.3947C1.31982 12.3004 2.78896 12.75 4.41442 12.75C6.078 12.75 7.54791 12.3046 8.82729 11.4137C10.1067 10.5277 11.0508 9.43461 11.6575 8.14757C12.2672 6.86218 12.569 5.52419 12.569 4.12703V3.7424C13.1585 3.27394 13.6352 2.7463 14 2.1636C13.4711 2.40441 12.9244 2.56796 12.359 2.65097Z" fill="#75757F"/>
</svg>
