<svg width="16" height="17" viewBox="0 0 16 17" fill="none" xmlns="http://www.w3.org/2000/svg">
<path fill-rule="evenodd" clip-rule="evenodd" d="M4.8 0.75H11.2C13.851 0.75 16 2.89903 16 5.55V11.95C16 14.601 13.851 16.75 11.2 16.75H4.8C2.14903 16.75 0 14.601 0 11.95V5.55C0 2.89903 2.14903 0.75 4.8 0.75ZM4.8 2.35C3.03269 2.35 1.6 3.78269 1.6 5.55V11.95C1.6 13.7173 3.03269 15.15 4.8 15.15H11.2C12.9673 15.15 14.4 13.7173 14.4 11.95V5.55C14.4 3.78269 12.9673 2.35 11.2 2.35H4.8ZM8 12.75C5.79086 12.75 4 10.9591 4 8.75C4 6.54086 5.79086 4.75 8 4.75C10.2091 4.75 12 6.54086 12 8.75C12 10.9591 10.2091 12.75 8 12.75ZM8 11.15C9.32548 11.15 10.4 10.0755 10.4 8.75C10.4 7.42452 9.32548 6.35 8 6.35C6.67452 6.35 5.6 7.42452 5.6 8.75C5.6 10.0755 6.67452 11.15 8 11.15ZM12 5.55C11.5582 5.55 11.2 5.19183 11.2 4.75C11.2 4.30817 11.5582 3.95 12 3.95C12.4418 3.95 12.8 4.30817 12.8 4.75C12.8 5.19183 12.4418 5.55 12 5.55Z" fill="#75757F"/>
</svg>
