<svg width="16" height="13" viewBox="0 0 16 13" fill="none" xmlns="http://www.w3.org/2000/svg">
<path d="M15.6657 2.62759C15.4817 1.88853 14.9395 1.30647 14.2511 1.10894C13.0033 0.75 8 0.75 8 0.75C8 0.75 2.99669 0.75 1.7489 1.10894C1.06052 1.3065 0.518349 1.88853 0.334336 2.62759C0 3.96719 0 6.76213 0 6.76213C0 6.76213 0 9.55706 0.334336 10.8967C0.518349 11.6357 1.06052 12.1935 1.7489 12.3911C2.99669 12.75 8 12.75 8 12.75C8 12.75 13.0033 12.75 14.2511 12.3911C14.9395 12.1935 15.4817 11.6357 15.6657 10.8967C16 9.55706 16 6.76213 16 6.76213C16 6.76213 16 3.96719 15.6657 2.62759V2.62759ZM6.36362 9.29972V4.22453L10.5454 6.76219L6.36362 9.29972V9.29972Z" fill="#75757F"/>
</svg>
