<svg width="15" height="14" viewBox="0 0 15 14" fill="none" xmlns="http://www.w3.org/2000/svg">
<path d="M3.20502 1.49977C3.20482 1.8976 3.04659 2.27905 2.76515 2.56021C2.4837 2.84138 2.10209 2.99922 1.70427 2.99902C1.30644 2.99882 0.924991 2.8406 0.643827 2.55915C0.362663 2.27771 0.204818 1.8961 0.205017 1.49827C0.205216 1.10045 0.363442 0.718997 0.644887 0.437833C0.926333 0.156669 1.30794 -0.00117529 1.70577 -0.000976375C2.10359 -0.000777462 2.48504 0.157449 2.76621 0.438894C3.04737 0.720339 3.20522 1.10195 3.20502 1.49977V1.49977ZM3.25002 4.10977H0.250017V13.4998H3.25002V4.10977ZM7.99002 4.10977H5.00502V13.4998H7.96002V8.57227C7.96002 5.82727 11.5375 5.57227 11.5375 8.57227V13.4998H14.5V7.55227C14.5 2.92477 9.20502 3.09727 7.96002 5.36977L7.99002 4.10977V4.10977Z" fill="#75757F"/>
</svg>
