<svg width="160" height="35" viewBox="0 0 160 35" fill="none" xmlns="http://www.w3.org/2000/svg">
<path fill-rule="evenodd" clip-rule="evenodd" d="M6.59531 9.23609C9.33565 5.73387 13.7239 3.46493 18.6698 3.46493C23.6448 3.46493 28.0553 5.76065 30.7924 9.29799C30.6759 9.41181 30.5698 9.52978 30.4737 9.64759C29.9724 10.2645 29.5951 11.059 29.293 11.8659C28.6844 13.4887 28.2202 15.6085 27.7904 17.5935L27.7522 17.7719C27.3234 19.7533 26.9248 21.5959 26.4428 22.9638C26.2263 23.5783 26.021 24.0128 25.8389 24.291C25.6489 24.0105 25.4334 23.5708 25.2052 22.9475C24.6898 21.5403 24.2562 19.6263 23.7967 17.5827L23.7818 17.5157V17.5157C23.3401 15.5527 22.8717 13.4699 22.2876 11.8756C21.9941 11.0747 21.6341 10.2881 21.1632 9.67694C20.701 9.07718 19.9317 8.40029 18.8065 8.40029C17.6884 8.40029 16.9156 9.06983 16.4467 9.66287C15.9667 10.2701 15.5924 11.0534 15.2842 11.8547C14.6633 13.4682 14.1557 15.5789 13.6833 17.5666L13.6346 17.7719C13.1668 19.7409 12.7295 21.5818 12.2331 22.9523C12.0437 23.4757 11.8648 23.8739 11.703 24.1583C11.5448 23.8752 11.3704 23.4797 11.1861 22.9607C10.7099 21.6194 10.2928 19.8301 9.84475 17.9083L9.76631 17.5719C9.30211 15.583 8.79847 13.4685 8.16879 11.85C7.85594 11.0457 7.47327 10.2584 6.97809 9.64838C6.86595 9.5103 6.73853 9.37013 6.59531 9.23609ZM4.93678 11.9253C5.0673 12.1701 5.20537 12.4736 5.34812 12.8406C5.89318 14.2416 6.35491 16.1533 6.83041 18.1905L6.92296 18.5875C7.35588 20.4464 7.80622 22.38 8.33668 23.8739C8.61882 24.6684 8.95954 25.4466 9.39771 26.0514C9.81209 26.6235 10.5555 27.3623 11.6986 27.3623C12.8383 27.3623 13.5835 26.627 14.0007 26.0576C14.4426 25.4542 14.7889 24.6769 15.0767 23.8818C15.6285 22.3584 16.0983 20.3794 16.5479 18.4855V18.4854L16.6167 18.1959C17.1011 16.1574 17.5675 14.2419 18.1086 12.8358C18.3592 12.1843 18.5939 11.7305 18.7981 11.449C18.9918 11.7281 19.213 12.1747 19.4476 12.815C19.9631 14.2222 20.3962 16.1361 20.8559 18.1798L20.871 18.2467C21.3125 20.2098 21.7809 22.2926 22.365 23.8867C22.6585 24.6879 23.0185 25.4745 23.4894 26.0855C23.9517 26.6854 24.7209 27.3623 25.8459 27.3623C26.9769 27.3623 27.7434 26.6792 28.2001 26.074C28.6639 25.4599 29.0127 24.6707 29.2944 23.8708C29.8359 22.3344 30.2664 20.3408 30.6769 18.4444V18.4443L30.7357 18.169C31.1778 16.1278 31.6019 14.2214 32.1259 12.8246C32.2393 12.5208 32.3511 12.2617 32.4577 12.0441C33.2604 13.7921 33.7056 15.7223 33.7056 17.7513C33.7056 25.6413 26.9741 32.0377 18.6698 32.0377C10.3656 32.0377 3.63379 25.6413 3.63379 17.7513C3.63379 15.6762 4.09941 13.7044 4.93678 11.9253ZM18.6698 0.607666C8.70481 0.607666 0.626587 8.28312 0.626587 17.7513C0.626587 27.2194 8.70481 34.8948 18.6698 34.8948C28.635 34.8948 36.7128 27.2194 36.7128 17.7513C36.7128 8.28312 28.635 0.607666 18.6698 0.607666ZM19.0136 11.2098C19.0136 11.2101 19.01 11.2128 19.003 11.2167C19.01 11.2114 19.0136 11.2095 19.0136 11.2098ZM18.5979 11.2117C18.5909 11.2077 18.5875 11.2049 18.5875 11.2045C18.5875 11.2042 18.591 11.2062 18.5979 11.2117ZM25.6173 24.5623C25.6173 24.5623 25.6205 24.5592 25.627 24.5552C25.6205 24.5605 25.6173 24.5627 25.6173 24.5623ZM26.0545 24.5508C26.0615 24.5548 26.0652 24.5574 26.0652 24.5579C26.0652 24.5583 26.0615 24.5561 26.0545 24.5508ZM11.3904 24.5879C11.3903 24.5875 11.3947 24.5835 11.4034 24.5778C11.3948 24.5853 11.3904 24.5884 11.3904 24.5879ZM11.9994 24.5804C12.008 24.5862 12.0123 24.5901 12.0123 24.5906C12.0123 24.591 12.0079 24.5884 11.9994 24.5804Z" fill="#81818B"/>
<path d="M46.6758 27.9008L42.3004 13.6802H46.1329L48.728 23.9155L51.7452 13.6802H56.0302L59.0479 23.9155L61.6729 13.6802H65.5054L61.0996 27.9008H57.0865L53.8877 17.264L50.6894 27.9008H46.6758Z" fill="#81818B"/>
<path d="M71.1287 28.2448C69.8414 28.2448 68.7851 28.0532 67.9604 27.671C67.1361 27.2697 66.5224 26.7441 66.1197 26.0942C65.7176 25.4443 65.5165 24.7276 65.5165 23.944C65.5165 22.6252 66.0593 21.5548 67.1456 20.7329C68.2318 19.911 69.8619 19.5001 72.0344 19.5001H75.8364V19.156C75.8364 18.1812 75.5445 17.4645 74.9612 17.0057C74.378 16.547 73.6535 16.3177 72.7888 16.3177C72.0039 16.3177 71.3198 16.4992 70.7366 16.8624C70.1533 17.2064 69.791 17.7225 69.6503 18.4106H65.8782C65.979 17.3785 66.3413 16.4801 66.9644 15.7156C67.6086 14.951 68.4334 14.368 69.4388 13.9667C70.4452 13.5462 71.5713 13.3359 72.8187 13.3359C74.9513 13.3359 76.6307 13.8424 77.8582 14.8554C79.0851 15.8685 79.6988 17.3021 79.6988 19.156V27.9006H76.4092L76.0475 25.6071C75.6049 26.3716 74.9812 27.0021 74.1769 27.4993C73.392 27.9961 72.3761 28.2448 71.1287 28.2448ZM72.0039 25.3775C73.1106 25.3775 73.9653 25.0333 74.5685 24.3453C75.1922 23.6574 75.5849 22.8066 75.7461 21.7937H72.4565C71.4306 21.7937 70.6967 21.9753 70.2536 22.3384C69.8115 22.6823 69.59 23.1128 69.59 23.6286C69.59 24.183 69.8115 24.613 70.2536 24.9187C70.6967 25.2244 71.2794 25.3775 72.0039 25.3775Z" fill="#81818B"/>
<path d="M85.7788 27.9008L80.2874 13.6802H84.3304L88.1324 24.4318L91.9345 13.6802H95.978L90.4561 27.9008H85.7788Z" fill="#81818B"/>
<path d="M103.742 28.2448C102.234 28.2448 100.896 27.9387 99.7291 27.3272C98.5625 26.7154 97.6474 25.8553 96.9833 24.7466C96.3192 23.6383 95.9879 22.3575 95.9879 20.9049C95.9879 19.4332 96.3097 18.1239 96.9529 16.9771C97.617 15.8303 98.5221 14.9415 99.6692 14.3107C100.835 13.6609 102.203 13.3359 103.773 13.3359C105.241 13.3359 106.539 13.6418 107.665 14.2534C108.792 14.865 109.667 15.706 110.29 16.7764C110.934 17.8276 111.256 19.0031 111.256 20.3028C111.256 20.5131 111.246 20.7329 111.226 20.9622C111.226 21.1917 111.216 21.4305 111.196 21.679H99.8199C99.9002 22.7876 100.303 23.6574 101.027 24.2883C101.771 24.9187 102.666 25.2342 103.713 25.2342C104.497 25.2342 105.151 25.0718 105.674 24.7466C106.216 24.4028 106.619 23.9631 106.881 23.4278H110.803C110.522 24.3263 110.049 25.1483 109.385 25.8938C108.741 26.6198 107.937 27.1932 106.971 27.6139C106.026 28.0342 104.949 28.2448 103.742 28.2448ZM103.773 16.3177C102.828 16.3177 101.992 16.5757 101.268 17.0917C100.544 17.5887 100.081 18.3533 99.8797 19.3854H107.333C107.273 18.4488 106.911 17.7034 106.247 17.1491C105.583 16.5948 104.759 16.3177 103.773 16.3177Z" fill="#81818B"/>
<path d="M113.298 27.9007V7.25781H117.16V27.9007H113.298Z" fill="#81818B"/>
<path d="M127.171 28.2448C125.663 28.2448 124.325 27.9387 123.158 27.3272C121.992 26.7154 121.077 25.8553 120.413 24.7466C119.748 23.6383 119.417 22.3575 119.417 20.9049C119.417 19.4332 119.739 18.1239 120.382 16.9771C121.046 15.8303 121.951 14.9415 123.098 14.3107C124.265 13.6609 125.633 13.3359 127.202 13.3359C128.67 13.3359 129.968 13.6418 131.095 14.2534C132.221 14.865 133.097 15.706 133.72 16.7764C134.363 17.8276 134.686 19.0031 134.686 20.3028C134.686 20.5131 134.675 20.7329 134.655 20.9622C134.655 21.1917 134.645 21.4305 134.625 21.679H123.249C123.329 22.7876 123.732 23.6574 124.456 24.2883C125.2 24.9187 126.096 25.2342 127.142 25.2342C127.926 25.2342 128.58 25.0718 129.103 24.7466C129.646 24.4028 130.048 23.9631 130.31 23.4278H134.233C133.951 24.3263 133.478 25.1483 132.815 25.8938C132.17 26.6198 131.366 27.1932 130.4 27.6139C129.455 28.0342 128.379 28.2448 127.171 28.2448ZM127.202 16.3177C126.257 16.3177 125.422 16.5757 124.697 17.0917C123.973 17.5887 123.511 18.3533 123.309 19.3854H130.762C130.702 18.4488 130.34 17.7034 129.676 17.1491C129.012 16.5948 128.188 16.3177 127.202 16.3177Z" fill="#81818B"/>
<path d="M142.913 28.2448C141.585 28.2448 140.418 28.0439 139.413 27.6427C138.406 27.2219 137.602 26.6486 136.998 25.9221C136.395 25.1961 136.033 24.3551 135.912 23.3995H139.804C139.925 23.9533 140.248 24.4316 140.77 24.8329C141.313 25.2151 142.007 25.4063 142.852 25.4063C143.697 25.4063 144.311 25.2439 144.693 24.9187C145.095 24.594 145.296 24.221 145.296 23.8007C145.296 23.1889 145.015 22.7779 144.452 22.5677C143.888 22.3384 143.104 22.1187 142.098 21.9084C141.455 21.7746 140.801 21.6121 140.137 21.421C139.473 21.2299 138.859 20.9909 138.296 20.7043C137.753 20.3984 137.31 20.0161 136.968 19.5574C136.626 19.0795 136.455 18.4966 136.455 17.8085C136.455 16.547 136.978 15.4862 138.025 14.6261C139.09 13.766 140.579 13.3359 142.49 13.3359C144.261 13.3359 145.669 13.7277 146.715 14.5114C147.781 15.2951 148.414 16.375 148.616 17.7512H144.965C144.743 16.6999 143.908 16.1743 142.46 16.1743C141.736 16.1743 141.173 16.3081 140.77 16.5757C140.388 16.8433 140.197 17.1777 140.197 17.5791C140.197 17.9997 140.489 18.3342 141.072 18.5826C141.656 18.8311 142.43 19.0604 143.395 19.2708C144.441 19.5001 145.397 19.7581 146.262 20.0448C147.147 20.3124 147.851 20.7234 148.375 21.2777C148.897 21.8128 149.159 22.5868 149.159 23.5998C149.179 24.4794 148.937 25.2722 148.435 25.9796C147.932 26.6866 147.208 27.2409 146.262 27.6427C145.317 28.0439 144.2 28.2448 142.913 28.2448Z" fill="#81818B"/>
<path d="M157.559 28.2448C156.232 28.2448 155.065 28.0439 154.059 27.6427C153.053 27.2219 152.249 26.6486 151.645 25.9221C151.042 25.1961 150.679 24.3551 150.559 23.3995H154.451C154.572 23.9533 154.894 24.4316 155.417 24.8329C155.96 25.2151 156.654 25.4063 157.499 25.4063C158.344 25.4063 158.958 25.2439 159.34 24.9187C159.742 24.594 159.943 24.221 159.943 23.8007C159.943 23.1889 159.662 22.7779 159.098 22.5677C158.535 22.3384 157.751 22.1187 156.745 21.9084C156.101 21.7746 155.447 21.6121 154.783 21.421C154.12 21.2299 153.506 20.9909 152.943 20.7043C152.4 20.3984 151.957 20.0161 151.615 19.5574C151.273 19.0795 151.102 18.4966 151.102 17.8085C151.102 16.547 151.625 15.4862 152.671 14.6261C153.737 13.766 155.226 13.3359 157.137 13.3359C158.907 13.3359 160.315 13.7277 161.361 14.5114C162.427 15.2951 163.061 16.375 163.263 17.7512H159.611C159.39 16.6999 158.555 16.1743 157.107 16.1743C156.382 16.1743 155.819 16.3081 155.417 16.5757C155.035 16.8433 154.844 17.1777 154.844 17.5791C154.844 17.9997 155.135 18.3342 155.719 18.5826C156.302 18.8311 157.076 19.0604 158.042 19.2708C159.088 19.5001 160.044 19.7581 160.909 20.0448C161.794 20.3124 162.498 20.7234 163.021 21.2777C163.544 21.8128 163.806 22.5868 163.806 23.5998C163.826 24.4794 163.584 25.2722 163.081 25.9796C162.578 26.6866 161.854 27.2409 160.909 27.6427C159.963 28.0439 158.847 28.2448 157.559 28.2448Z" fill="#81818B"/>
</svg>
