<svg width="71" height="24" viewBox="0 0 71 24" fill="none" xmlns="http://www.w3.org/2000/svg">
<path d="M14.6815 11.8451C15.8617 11.9399 16.8531 12.4142 17.7028 13.3152C18.5525 14.2162 18.9774 15.4492 18.9774 17.0142C18.9774 18.9111 18.3637 20.476 17.0891 21.6142C15.8145 22.7523 14.0206 23.3214 11.613 23.3214H0V0.843018H11.5658C13.5957 0.843018 15.248 1.41209 16.4754 2.50281C17.7028 3.64096 18.3165 5.11106 18.3165 6.96054C18.3165 8.38322 17.9388 9.47395 17.1363 10.3276C16.3338 11.1812 15.5312 11.608 14.6343 11.7028L14.6815 11.8451ZM5.52327 10.1379H10.3384C11.141 10.1379 11.8019 9.90075 12.3211 9.42652C12.7932 8.9523 13.0765 8.38322 13.0765 7.57704C13.0765 6.8657 12.8404 6.34405 12.3684 5.91724C11.8963 5.49044 11.2826 5.30075 10.5745 5.30075H5.52327V10.1379ZM10.6217 18.8636C11.4714 18.8636 12.1795 18.6265 12.6516 18.1997C13.1237 17.7729 13.3597 17.1564 13.3597 16.3502C13.3597 15.5915 13.1237 15.0224 12.6044 14.5956C12.1323 14.1688 11.4714 13.9317 10.7161 13.9317H5.52327V18.8636H10.6217ZM38.0964 23.3214H32.762V21.709C31.4402 23.1317 29.6935 23.843 27.6164 23.843C25.6336 23.843 24.0758 23.1791 22.8956 21.8987C21.7154 20.6183 21.1017 18.9111 21.1017 16.8245V6.48632H26.389V15.6863C26.389 16.6822 26.6722 17.4884 27.1915 18.1049C27.7108 18.7214 28.4189 19.0059 29.2686 19.0059C30.3544 19.0059 31.2041 18.6265 31.8178 17.8678C32.4315 17.109 32.7148 15.9234 32.7148 14.3111V6.48632H38.0492L38.0964 23.3214ZM54.5718 23.3214H40.4096V22.3255L47.0658 10.7544H40.5984V6.48632H54.4774V7.48219L47.8211 19.0533H54.5246V23.3214H54.5718ZM71 23.3214H56.885V22.3255L63.494 10.7544H57.0266V6.48632H70.9056V7.48219L64.2493 19.0533H70.9528L71 23.3214Z" fill="#718087"/>
</svg>
