<svg width="97" height="24" viewBox="0 0 97 24" fill="none" xmlns="http://www.w3.org/2000/svg">
<path opacity="0.8" d="M21.9845 16.2062V21.1646C20.182 22.7497 15.8749 23.6926 12.6682 23.6926C9.46558 23.6926 0.600952 21.7092 0.600952 12.3898C0.600952 3.07027 9.03857 1.06249 12.4424 1.06249C15.8503 1.06249 19.4799 1.68027 21.5821 3.07027V7.43128C21.5821 7.9759 20.8307 7.92713 20.8307 7.43128C20.7814 6.68751 18.7778 2.22895 13.7686 2.3265C8.3611 2.43623 4.70685 6.64281 4.70685 12.1906C4.70685 17.7384 8.25845 22.5018 13.6208 22.3514C15.3617 22.3026 17.1765 21.758 18.0551 21.0346L18.0757 16.2062C18.0757 14.8202 17.2257 14.3244 16.3758 14.3244C15.8215 14.3244 15.8215 13.5318 16.3758 13.5318H23.6843C24.2345 13.5318 24.2345 14.3731 23.6843 14.3244C22.8385 14.3244 21.9845 14.8202 21.9845 16.2062ZM71.2593 7.43535C71.2593 7.97997 70.7092 7.9312 70.7092 7.43535C70.6558 6.69158 68.6562 2.08264 63.647 2.18424C58.2395 2.28992 54.5812 6.64687 54.5812 12.1947C54.5812 17.7425 58.0876 22.6522 63.4458 22.5059C68.804 22.3555 71.3579 17.1044 71.5591 16.4094C71.7603 15.7144 72.1093 15.816 72.1093 16.3606V20.4249C69.9085 22.01 65.7492 23.6967 62.5466 23.6967C59.344 23.6967 50.4794 21.7133 50.4794 12.3938C50.4794 3.07027 58.8924 0.843018 62.2962 0.843018C65.7041 0.843018 69.1571 1.68433 71.2635 3.07027V7.43535H71.2593ZM48.5743 1.38764C49.3749 1.38764 49.3749 2.13141 48.5743 2.13141C47.7243 2.13141 46.8744 2.62726 46.8744 4.01319L46.7759 14.8446C46.7759 20.0307 42.5263 23.843 37.283 23.843C32.0398 23.843 27.9462 20.0307 27.9462 14.8446V4.01319C27.9462 2.62319 27.0922 2.13141 26.2423 2.13141C25.4416 2.13141 25.4416 1.38764 26.2423 1.38764H33.6534C34.4541 1.38764 34.4541 2.13141 33.6534 2.13141C32.7994 2.13141 31.9495 2.62726 31.9495 4.01319L31.9413 16.1086C31.9413 19.7665 34.9632 22.7335 38.6585 22.7335C42.3538 22.7335 45.3511 19.0227 45.3511 15.3689L45.1705 4.01319C45.1705 2.62319 44.3205 2.13141 43.4665 2.13141C42.67 2.13141 42.67 1.38764 43.4665 1.38764H48.5743ZM95.7469 7.43535C95.7469 7.97997 95.1967 7.9312 95.1967 7.43535C95.1475 6.69158 93.1438 2.08264 88.1346 2.18424C82.7271 2.28992 79.0688 6.64687 79.0688 12.1947C79.0688 17.7425 82.5752 22.6522 87.9334 22.5059C93.2916 22.3595 95.8455 17.1044 96.0467 16.4094C96.2478 15.7144 96.601 15.816 96.601 16.3606V20.4249C94.3961 22.01 90.2409 23.6967 87.0342 23.6967C83.8316 23.6967 74.967 21.7133 74.967 12.3938C74.967 3.07027 83.38 0.843018 86.7878 0.843018C90.1916 0.843018 93.6488 1.68433 95.751 3.07027V7.43535H95.7469Z" fill="#718087"/>
</svg>
