<svg width="86" height="27" viewBox="0 0 86 27" fill="none" xmlns="http://www.w3.org/2000/svg">
<path d="M45.3987 6.70527C45.3987 7.66702 44.6283 8.44143 43.6723 8.44143C42.7162 8.44143 41.9464 7.66702 41.9464 6.70527C41.9464 5.74353 42.69 4.96911 43.6723 4.96911C44.6554 4.99579 45.3987 5.77048 45.3987 6.70527ZM38.2819 10.2048V10.6323C38.2819 10.6323 37.4591 9.56329 35.7064 9.56329C32.8123 9.56329 30.5548 11.7806 30.5548 14.8524C30.5548 17.8977 32.7858 20.1414 35.7064 20.1414C37.4856 20.1414 38.2819 19.0463 38.2819 19.0463V19.5002C38.2819 19.7139 38.4416 19.8738 38.6538 19.8738H40.8044V9.82961H38.6538C38.4416 9.83041 38.2819 10.0177 38.2819 10.2048ZM38.2819 16.6422C37.884 17.23 37.0871 17.7376 36.1314 17.7376C34.432 17.7376 33.1306 16.6691 33.1306 14.8524C33.1306 13.0359 34.432 11.9674 36.1314 11.9674C37.0609 11.9674 37.9105 12.5016 38.2819 13.0626V16.6422ZM42.3979 9.83041H44.9469V19.8746H42.3979V9.83041ZM80.4764 9.56303C78.7238 9.56303 77.9004 10.632 77.9004 10.632V4.9958H75.3514V19.8746H77.5024C77.7149 19.8746 77.8738 19.6875 77.8738 19.5004V19.0465C77.8738 19.0465 78.6972 20.1417 80.4494 20.1417C83.344 20.1417 85.6009 17.8985 85.6009 14.8532C85.6009 11.8078 83.344 9.56303 80.4764 9.56303ZM80.0515 17.7106C79.0686 17.7106 78.2988 17.2036 77.9004 16.6155V13.0359C78.2988 12.5016 79.1485 11.9407 80.0515 11.9407C81.7508 11.9407 83.0519 13.0092 83.0519 14.8257C83.0519 16.6422 81.7511 17.7106 80.0515 17.7106ZM74.0239 13.9178V19.9013H71.4744V14.2114C71.4744 12.5555 70.9433 11.8873 69.5103 11.8873C68.7405 11.8873 67.9436 12.2881 67.4383 12.876V19.8748H64.8898V9.83068H66.9072C67.1197 9.83068 67.2791 10.0177 67.2791 10.2048V10.6323C68.0227 9.85736 69.005 9.56329 69.9873 9.56329C71.1028 9.56329 72.0323 9.88432 72.7758 10.5253C73.6783 11.2733 74.0239 12.2348 74.0239 13.9178ZM58.7018 9.56303C56.9497 9.56303 56.1263 10.632 56.1263 10.632V4.9958H53.5773V19.8746H55.7278C55.9403 19.8746 56.0997 19.6875 56.0997 19.5004V19.0465C56.0997 19.0465 56.9231 20.1417 58.6753 20.1417C61.5699 20.1417 63.8269 17.8985 63.8269 14.8532C63.8534 11.8075 61.5965 9.56303 58.7018 9.56303ZM58.2768 17.7106C57.2945 17.7106 56.5247 17.2036 56.1263 16.6155V13.0359C56.5247 12.5016 57.3744 11.9407 58.2768 11.9407C59.9767 11.9407 61.2776 13.0092 61.2776 14.8257C61.2776 16.6422 59.9767 17.7106 58.2768 17.7106ZM51.3731 9.56303C52.1429 9.56303 52.5414 9.69698 52.5414 9.69698V12.0741C52.5414 12.0741 50.4171 11.3528 49.0897 12.8758V19.901H46.5401V9.83041H48.6912C48.9037 9.83041 49.0626 10.0175 49.0626 10.2045V10.632C49.5411 10.0708 50.5768 9.56303 51.3731 9.56303ZM24.8992 18.9662C24.7666 18.6457 24.6337 18.2985 24.501 18.0045C24.2883 17.5238 24.0758 17.0694 23.8904 16.6422L23.8638 16.6155C22.0313 12.6084 20.0667 8.54844 17.9952 4.54188L17.9156 4.38123C17.6978 3.96559 17.4854 3.54704 17.2787 3.12568C17.0129 2.64454 16.7476 2.13751 16.3227 1.65637C15.473 0.587882 14.2514 0 12.9505 0C11.6226 0 10.4278 0.587885 9.55187 1.60273C9.15343 2.08334 8.8611 2.5909 8.59583 3.07204C8.38859 3.49314 8.17626 3.91169 7.95891 4.32759L7.87906 4.48824C5.83434 8.4948 3.84294 12.555 2.0107 16.5618L1.98392 16.6149C1.79823 17.043 1.58547 17.4969 1.37299 17.9772C1.24036 18.2713 1.10772 18.5918 0.975083 18.939C0.629698 19.9271 0.523319 20.8622 0.656486 21.8242C0.94855 23.8278 2.27597 25.51 4.10848 26.2585C4.79898 26.5526 5.51601 26.686 6.2593 26.686C6.47179 26.686 6.73707 26.6594 6.94982 26.6324C7.82628 26.5257 8.72899 26.2321 9.60545 25.7246C10.6941 25.11 11.7298 24.2288 12.898 22.9466C14.0663 24.2288 15.1284 25.11 16.1906 25.7246C17.0673 26.2321 17.9698 26.5257 18.8459 26.6324C19.0584 26.6596 19.3242 26.686 19.5367 26.686C20.2803 26.686 21.0236 26.5526 21.6873 26.2585C23.5463 25.51 24.8472 23.8011 25.1395 21.8242C25.3504 20.8894 25.2443 19.9549 24.8992 18.9662ZM12.9237 20.3552C11.4897 18.5387 10.5602 16.8292 10.2418 15.3871C10.1092 14.7726 10.0824 14.2383 10.1623 13.7575C10.215 13.3299 10.3747 12.9558 10.5872 12.6353C11.0918 11.9145 11.9414 11.4601 12.924 11.4601C13.9068 11.4601 14.783 11.8876 15.2611 12.6353C15.4735 12.9558 15.6327 13.3302 15.6863 13.7575C15.7656 14.2386 15.7391 14.7993 15.6064 15.3871C15.2868 16.8025 14.3573 18.5123 12.9237 20.3552ZM23.5182 21.6107C23.3325 22.9997 22.403 24.2022 21.1021 24.7364C20.4649 25.0033 19.7741 25.0836 19.0842 25.0033C18.4205 24.9229 17.7562 24.7092 17.0662 24.3089C16.1102 23.7741 15.1544 22.9466 14.039 21.7175C15.7913 19.5541 16.8535 17.577 17.2519 15.8144C17.4379 14.9861 17.4647 14.2383 17.3846 13.5434C17.2787 12.8758 17.0394 12.2612 16.6678 11.7269C15.8441 10.5245 14.4631 9.83041 12.9235 9.83041C11.3838 9.83041 10.0028 10.5517 9.17969 11.7269C8.80804 12.2612 8.56877 12.8758 8.46266 13.5434C8.35655 14.2383 8.38281 15.0127 8.59529 15.8144C8.99347 17.577 10.0822 19.5805 11.808 21.7442C10.7193 22.973 9.73676 23.8013 8.78072 24.3356C8.09022 24.7364 7.42677 24.9502 6.76306 25.0299C6.0463 25.1103 5.35553 25.0033 4.74487 24.7631C3.44397 24.2288 2.51446 23.0264 2.32877 21.6374C2.24919 20.9697 2.30197 20.3021 2.56778 19.5541C2.64709 19.2867 2.78026 19.0198 2.9129 18.6993C3.09885 18.2718 3.3108 17.8174 3.52355 17.3635L3.55035 17.3104C5.38232 13.3299 7.34719 9.26975 9.39191 5.31656L9.47149 5.15591C9.68424 4.75563 9.89673 4.32813 10.1089 3.92731C10.3214 3.49981 10.5602 3.09899 10.8525 2.75154C11.4101 2.11109 12.1534 1.76338 12.9768 1.76338C13.8002 1.76338 14.5435 2.11109 15.1011 2.75154C15.3934 3.09979 15.6322 3.50061 15.8447 3.92731C16.0574 4.32813 16.2699 4.75563 16.4818 5.15591L16.5617 5.31656C18.5752 9.28617 20.514 13.2937 22.377 17.337V17.3637C22.5897 17.7918 22.7754 18.2721 22.9879 18.7001C23.1206 19.0201 23.2535 19.287 23.333 19.5543C23.545 20.2482 23.6246 20.9164 23.5182 21.6107Z" fill="#718087"/>
</svg>
