<svg width="76" height="17" viewBox="0 0 76 17" fill="none" xmlns="http://www.w3.org/2000/svg">
<path d="M12.776 0.343018H15.6604V9.69536C15.6604 14.6159 12.5848 16.343 8.12271 16.343C3.67659 16.343 0.600952 14.6159 0.600952 9.69536V0.717763C0.600952 0.457071 0.72844 0.343018 0.983415 0.343018H3.86782V9.54872C3.86782 12.4978 5.14269 13.7198 8.12271 13.7198C11.1187 13.7198 12.3935 12.4978 12.3935 9.54872V0.717763C12.3935 0.457071 12.521 0.343018 12.776 0.343018ZM45.4287 2.90106V6.84404H52.7274C52.8549 6.84404 52.9027 6.90921 52.8549 7.03956L52.0581 9.05992C51.9784 9.23915 51.8668 9.32061 51.6278 9.32061H47.341C45.9387 9.32061 45.4287 9.76053 45.4287 10.7218V13.508H55.309C55.4365 13.508 55.4843 13.5732 55.4365 13.7035L54.6078 15.8053C54.5281 15.9846 54.4166 16.066 54.1776 16.066H43.3571C42.5284 16.066 42.2097 15.7728 42.2097 15.1373V1.43467C42.2097 0.668883 42.624 0.343018 43.7077 0.343018H55.309C55.4365 0.343018 55.4843 0.408191 55.4365 0.522244L54.6078 2.64037C54.5281 2.8196 54.4166 2.90106 54.1776 2.90106H45.4287ZM36.2656 11.7157C36.2656 14.8603 34.0983 16.066 31.0545 16.066H22.9909C22.1463 16.066 21.8436 15.7728 21.8436 15.1373V1.43467C21.8436 0.668883 22.2419 0.343018 23.3415 0.343018H29.8912C32.7597 0.343018 35.5325 0.848109 35.5325 4.33487C35.5325 5.83385 35.0066 7.10473 33.7477 7.77275C35.4847 8.24526 36.2656 9.842 36.2656 11.7157ZM25.0148 6.89292H30.1302C31.8194 6.89292 32.2975 6.22489 32.2975 4.85626C32.2975 3.48762 31.8194 2.83589 30.1302 2.83589H25.0148V6.89292ZM33.0306 11.4224C33.0306 9.97235 32.5366 9.25544 30.7199 9.25544H26.9431C25.5407 9.25544 25.0148 9.69536 25.0148 10.6567V13.5732H30.7199C32.5366 13.5732 33.0306 12.8563 33.0306 11.4224ZM75.4202 16.066H72.4879C72.2489 16.066 72.1533 15.9683 72.0577 15.8053L68.9502 10.0701H66.0976C64.6953 10.0701 64.1694 10.51 64.1694 11.4713V16.066H61.3647C61.1097 16.066 60.9822 15.9357 60.9822 15.6913V1.43467C60.9822 0.668883 61.3965 0.343018 62.4802 0.343018H69.0617C72.9023 0.343018 75.213 1.36949 75.213 5.18212C75.213 8.13121 73.8266 9.28803 72.1055 9.74424L75.5636 15.789C75.6273 15.8868 75.6273 16.066 75.4202 16.066ZM71.978 5.24729C71.978 3.65055 71.5477 2.86848 69.5398 2.86848H64.1694V7.62611H69.5398C71.5477 7.62611 71.978 6.86033 71.978 5.24729Z" fill="#718087"/>
</svg>
