<svg width="123" height="123" viewBox="0 0 123 123" fill="none" xmlns="http://www.w3.org/2000/svg">
<g id="div">
<rect id="div_2" x="0.8125" y="0.4375" width="10" height="10" rx="5" fill="#81818B" fill-opacity="0.2"/>
<rect id="div_3" x="16.8125" y="0.4375" width="10" height="10" rx="5" fill="#81818B" fill-opacity="0.2"/>
<rect id="div_4" x="32.8125" y="0.4375" width="10" height="10" rx="5" fill="#81818B" fill-opacity="0.2"/>
<rect id="div_5" x="48.8125" y="0.4375" width="10" height="10" rx="5" fill="#81818B" fill-opacity="0.2"/>
<rect id="div_6" x="64.8125" y="0.4375" width="10" height="10" rx="5" fill="#81818B" fill-opacity="0.2"/>
<rect id="div_7" x="80.8125" y="0.4375" width="10" height="10" rx="5" fill="#81818B" fill-opacity="0.2"/>
<rect id="div_8" x="96.8125" y="0.4375" width="10" height="10" rx="5" fill="#81818B" fill-opacity="0.2"/>
<rect id="div_9" x="112.812" y="0.4375" width="10" height="10" rx="5" fill="#81818B" fill-opacity="0.2"/>
<rect id="div_10" x="0.8125" y="16.4375" width="10" height="10" rx="5" fill="#81818B" fill-opacity="0.2"/>
<rect id="div_11" x="16.8125" y="16.4375" width="10" height="10" rx="5" fill="#81818B" fill-opacity="0.2"/>
<rect id="div_12" x="32.8125" y="16.4375" width="10" height="10" rx="5" fill="#81818B" fill-opacity="0.2"/>
<rect id="div_13" x="48.8125" y="16.4375" width="10" height="10" rx="5" fill="#81818B" fill-opacity="0.2"/>
<rect id="div_14" x="64.8125" y="16.4375" width="10" height="10" rx="5" fill="#81818B" fill-opacity="0.2"/>
<rect id="div_15" x="80.8125" y="16.4375" width="10" height="10" rx="5" fill="#81818B" fill-opacity="0.2"/>
<rect id="div_16" x="96.8125" y="16.4375" width="10" height="10" rx="5" fill="#81818B" fill-opacity="0.2"/>
<rect id="div_17" x="112.812" y="16.4375" width="10" height="10" rx="5" fill="#81818B" fill-opacity="0.2"/>
<rect id="div_18" x="0.8125" y="32.4375" width="10" height="10" rx="5" fill="#81818B" fill-opacity="0.2"/>
<rect id="div_19" x="16.8125" y="32.4375" width="10" height="10" rx="5" fill="#81818B" fill-opacity="0.2"/>
<rect id="div_20" x="32.8125" y="32.4375" width="10" height="10" rx="5" fill="#81818B" fill-opacity="0.2"/>
<rect id="div_21" x="48.8125" y="32.4375" width="10" height="10" rx="5" fill="#81818B" fill-opacity="0.2"/>
<rect id="div_22" x="64.8125" y="32.4375" width="10" height="10" rx="5" fill="#81818B" fill-opacity="0.2"/>
<rect id="div_23" x="80.8125" y="32.4375" width="10" height="10" rx="5" fill="#81818B" fill-opacity="0.2"/>
<rect id="div_24" x="96.8125" y="32.4375" width="10" height="10" rx="5" fill="#81818B" fill-opacity="0.2"/>
<rect id="div_25" x="112.812" y="32.4375" width="10" height="10" rx="5" fill="#81818B" fill-opacity="0.2"/>
<rect id="div_26" x="0.8125" y="48.4375" width="10" height="10" rx="5" fill="#81818B" fill-opacity="0.2"/>
<rect id="div_27" x="16.8125" y="48.4375" width="10" height="10" rx="5" fill="#81818B" fill-opacity="0.2"/>
<rect id="div_28" x="32.8125" y="48.4375" width="10" height="10" rx="5" fill="#81818B" fill-opacity="0.2"/>
<rect id="div_29" x="48.8125" y="48.4375" width="10" height="10" rx="5" fill="#81818B" fill-opacity="0.2"/>
<rect id="div_30" x="64.8125" y="48.4375" width="10" height="10" rx="5" fill="#81818B" fill-opacity="0.2"/>
<rect id="div_31" x="80.8125" y="48.4375" width="10" height="10" rx="5" fill="#81818B" fill-opacity="0.2"/>
<rect id="div_32" x="96.8125" y="48.4375" width="10" height="10" rx="5" fill="#81818B" fill-opacity="0.2"/>
<rect id="div_33" x="112.812" y="48.4375" width="10" height="10" rx="5" fill="#81818B" fill-opacity="0.2"/>
<rect id="div_34" x="0.8125" y="64.4375" width="10" height="10" rx="5" fill="#81818B" fill-opacity="0.2"/>
<rect id="div_35" x="16.8125" y="64.4375" width="10" height="10" rx="5" fill="#81818B" fill-opacity="0.2"/>
<rect id="div_36" x="32.8125" y="64.4375" width="10" height="10" rx="5" fill="#81818B" fill-opacity="0.2"/>
<rect id="div_37" x="48.8125" y="64.4375" width="10" height="10" rx="5" fill="#81818B" fill-opacity="0.2"/>
<rect id="div_38" x="64.8125" y="64.4375" width="10" height="10" rx="5" fill="#81818B" fill-opacity="0.2"/>
<rect id="div_39" x="80.8125" y="64.4375" width="10" height="10" rx="5" fill="#81818B" fill-opacity="0.2"/>
<rect id="div_40" x="96.8125" y="64.4375" width="10" height="10" rx="5" fill="#81818B" fill-opacity="0.2"/>
<rect id="div_41" x="112.812" y="64.4375" width="10" height="10" rx="5" fill="#81818B" fill-opacity="0.2"/>
<rect id="div_42" x="0.8125" y="80.4375" width="10" height="10" rx="5" fill="#81818B" fill-opacity="0.2"/>
<rect id="div_43" x="16.8125" y="80.4375" width="10" height="10" rx="5" fill="#81818B" fill-opacity="0.2"/>
<rect id="div_44" x="32.8125" y="80.4375" width="10" height="10" rx="5" fill="#81818B" fill-opacity="0.2"/>
<rect id="div_45" x="48.8125" y="80.4375" width="10" height="10" rx="5" fill="#81818B" fill-opacity="0.2"/>
<rect id="div_46" x="64.8125" y="80.4375" width="10" height="10" rx="5" fill="#81818B" fill-opacity="0.2"/>
<rect id="div_47" x="80.8125" y="80.4375" width="10" height="10" rx="5" fill="#81818B" fill-opacity="0.2"/>
<rect id="div_48" x="96.8125" y="80.4375" width="10" height="10" rx="5" fill="#81818B" fill-opacity="0.2"/>
<rect id="div_49" x="112.812" y="80.4375" width="10" height="10" rx="5" fill="#81818B" fill-opacity="0.2"/>
<rect id="div_50" x="0.8125" y="96.4375" width="10" height="10" rx="5" fill="#81818B" fill-opacity="0.2"/>
<rect id="div_51" x="16.8125" y="96.4375" width="10" height="10" rx="5" fill="#81818B" fill-opacity="0.2"/>
<rect id="div_52" x="32.8125" y="96.4375" width="10" height="10" rx="5" fill="#81818B" fill-opacity="0.2"/>
<rect id="div_53" x="48.8125" y="96.4375" width="10" height="10" rx="5" fill="#81818B" fill-opacity="0.2"/>
<rect id="div_54" x="64.8125" y="96.4375" width="10" height="10" rx="5" fill="#81818B" fill-opacity="0.2"/>
<rect id="div_55" x="80.8125" y="96.4375" width="10" height="10" rx="5" fill="#81818B" fill-opacity="0.2"/>
<rect id="div_56" x="96.8125" y="96.4375" width="10" height="10" rx="5" fill="#81818B" fill-opacity="0.2"/>
<rect id="div_57" x="112.812" y="96.4375" width="10" height="10" rx="5" fill="#81818B" fill-opacity="0.2"/>
<rect id="div_58" x="0.8125" y="112.438" width="10" height="10" rx="5" fill="#81818B" fill-opacity="0.2"/>
<rect id="div_59" x="16.8125" y="112.438" width="10" height="10" rx="5" fill="#81818B" fill-opacity="0.2"/>
<rect id="div_60" x="32.8125" y="112.438" width="10" height="10" rx="5" fill="#81818B" fill-opacity="0.2"/>
<rect id="div_61" x="48.8125" y="112.438" width="10" height="10" rx="5" fill="#81818B" fill-opacity="0.2"/>
<rect id="div_62" x="64.8125" y="112.438" width="10" height="10" rx="5" fill="#81818B" fill-opacity="0.2"/>
<rect id="div_63" x="80.8125" y="112.438" width="10" height="10" rx="5" fill="#81818B" fill-opacity="0.2"/>
<rect id="div_64" x="96.8125" y="112.438" width="10" height="10" rx="5" fill="#81818B" fill-opacity="0.2"/>
<rect id="div_65" x="112.812" y="112.438" width="10" height="10" rx="5" fill="#81818B" fill-opacity="0.2"/>
</g>
</svg>
